Coordinates
version=1
nRows=13
nColumns=38
inDegrees=no

Units are S.I. units (second, meters, Newtons, ...)
If the header above contains a line with 'inDegrees', this indicates whether rotational values are in degrees (yes) or radians (no).

endheader
time	pelvis_tilt	pelvis_list	pelvis_rotation	pelvis_tx	pelvis_ty	pelvis_tz	hip_flexion_r	hip_adduction_r	hip_rotation_r	knee_angle_r	ankle_angle_r	subtalar_angle_r	mtp_angle_r	hip_flexion_l	hip_adduction_l	hip_rotation_l	knee_angle_l	ankle_angle_l	subtalar_angle_l	mtp_angle_l	lumbar_extension	lumbar_bending	lumbar_rotation	arm_flex_r	arm_add_r	arm_rot_r	elbow_flex_r	pro_sup_r	wrist_flex_r	wrist_dev_r	arm_flex_l	arm_add_l	arm_rot_l	elbow_flex_l	pro_sup_l	wrist_flex_l	wrist_dev_l
1.12	2.51077	1.42736	-0.857997	0.837161	0.582674	0.988935	0.299541	0.0284426	-0.517444	0.257328	0.0320976	0	0	-0.367771	-0.0924337	-0.114271	0.311449	0.264103	0	0	-0.35867	0.0940767	0.0383051	-0.0784174	-0.189583	0.0277469	0.365348	1.33573	0	0	0.0764552	-0.249714	0.325037	0.352191	1.4312	0	0
1.13	2.47687	1.4169	-0.81159	0.837333	0.594415	0.988747	0.283249	0.0415907	-0.522195	0.24805	-0.00428409	0	0	-0.371925	-0.113375	-0.113649	0.332586	0.262035	0	0	-0.36041	0.111463	0.0338803	-0.0880444	-0.189907	0.0129437	0.370319	1.35266	0	0	0.0740545	-0.24685	0.330726	0.348561	1.42795	0	0
1.14	2.46437	1.41456	-0.789437	0.837757	0.606471	0.988003	0.284458	0.0388781	-0.528693	0.26913	-0.0327232	0	0	-0.37067	-0.124908	-0.109668	0.355153	0.256003	0	0	-0.355789	0.119229	0.0291723	-0.0991357	-0.189561	0.00736222	0.374389	1.35464	0	0	0.0688232	-0.245337	0.330909	0.346946	1.42887	0	0
1.15	2.44306	1.41156	-0.76059	0.838271	0.618194	0.987831	0.291713	0.0327496	-0.540293	0.306416	-0.0427665	0	0	-0.365485	-0.137195	-0.105958	0.382372	0.244991	0	0	-0.352006	0.128007	0.0267812	-0.109167	-0.189975	0.00155932	0.379903	1.35649	0	0	0.0636451	-0.242738	0.329079	0.346561	1.4315	0	0
1.16	2.42078	1.40857	-0.733563	0.838806	0.629677	0.988225	0.300571	0.0250169	-0.552984	0.350896	-0.035424	0	0	-0.356586	-0.148688	-0.103377	0.414576	0.227928	0	0	-0.349066	0.136325	0.026063	-0.117531	-0.191146	-0.00370563	0.385619	1.3583	0	0	0.05773	-0.239165	0.324359	0.348061	1.43537	0	0
1.17	2.39417	1.40604	-0.705309	0.839438	0.641025	0.988904	0.307423	0.0198851	-0.562286	0.38955	-0.0268691	0	0	-0.34288	-0.159692	-0.103247	0.452637	0.204959	0	0	-0.345403	0.144065	0.0265435	-0.124433	-0.192894	-0.00906382	0.390909	1.36064	0	0	0.0504397	-0.235384	0.317524	0.351574	1.43967	0	0
1.18	2.36038	1.4047	-0.672002	0.840272	0.65219	0.989602	0.311547	0.0189941	-0.567328	0.416014	-0.0258891	0	0	-0.323127	-0.170819	-0.104835	0.496845	0.178315	0	0	-0.339745	0.150655	0.0270609	-0.129902	-0.194686	-0.0144277	0.395179	1.36387	0	0	0.0421893	-0.232399	0.310163	0.35578	1.44365	0	0
1.19	2.31231	1.40513	-0.625269	0.841399	0.663022	0.990098	0.314711	0.0216761	-0.572749	0.431572	-0.0296669	0	0	-0.295585	-0.183025	-0.106545	0.547332	0.146943	0	0	-0.330838	0.156123	0.0265253	-0.13397	-0.196289	-0.0194855	0.398282	1.37192	0	0	0.0336061	-0.230651	0.30126	0.360022	1.45063	0	0
1.2	2.25704	1.40585	-0.571176	0.842777	0.673457	0.99048	0.315187	0.0277787	-0.578457	0.437222	-0.0311968	0	0	-0.263455	-0.196252	-0.106034	0.601009	0.113268	0	0	-0.320878	0.160786	0.0250133	-0.136784	-0.197573	-0.0231715	0.400585	1.38148	0	0	0.0259514	-0.231198	0.297369	0.364311	1.45528	0	0
1.21	2.19574	1.40645	-0.509717	0.844233	0.683494	0.990745	0.313857	0.0356034	-0.585683	0.436234	-0.0281877	0	0	-0.227101	-0.210146	-0.101388	0.657251	0.077208	0	0	-0.309978	0.165321	0.0220609	-0.139839	-0.198211	-0.0290215	0.404668	1.39224	0	0	0.0192793	-0.2339	0.300706	0.369593	1.45261	0	0
1.22	2.12836	1.40682	-0.440893	0.845683	0.693213	0.990912	0.312754	0.0442919	-0.59227	0.432406	-0.0230306	0	0	-0.186958	-0.223726	-0.0921101	0.71474	0.0384256	0	0	-0.297589	0.169969	0.017836	-0.143956	-0.199104	-0.0334334	0.411153	1.40129	0	0	0.0133909	-0.23858	0.312737	0.375885	1.4411	0	0
1.23	2.06406	1.40584	-0.373582	0.847022	0.702657	0.991206	0.31076	0.0540032	-0.596586	0.426862	-0.0186921	0	0	-0.145364	-0.236202	-0.0770958	0.772058	-0.00169998	0	0	-0.285666	0.175231	0.0128839	-0.148788	-0.200109	-0.0380077	0.419535	1.41017	0	0	0.00773146	-0.24631	0.34004	0.386948	1.41172	0	0
1.24	2.00997	1.40281	-0.315407	0.848231	0.711871	0.991788	0.307183	0.0647886	-0.598377	0.42151	-0.0146	0	0	-0.104418	-0.247483	-0.0573708	0.828193	-0.0417923	0	0	-0.275905	0.18161	0.0079431	-0.153968	-0.201584	-0.0423426	0.430184	1.41779	0	0	0.0027562	-0.254662	0.370904	0.40086	1.37525	0	0
